<?xml version="1.0" encoding="utf-8"?>
<!-- Generated by Mocodo 4.2.4 -->
<svg width="416" height="195" viewBox="0 0 416 195" xmlns="http://www.w3.org/2000/svg">
<rect x="0" y="0" width="416" height="195" fill="#ffffbf" stroke="none" stroke-width="0"/>

<!-- Association EFFECTUER -->
<g>
	<line x1="63" y1="60" x2="63" y2="161" stroke="#66c2a5" stroke-width="2"/>
	<line x1="208" y1="60" x2="63" y2="161" stroke="#66c2a5" stroke-width="2"/>
	<g>
		<path d="M84 136 a14 14 90 0 1 14 14 V161 h-70 V150 a14 14 90 0 1 14 -14" fill="#abdda4" stroke="#abdda4" stroke-width="0"/>
		<path d="M98 161 v11 a14 14 90 0 1 -14 14 H42 a14 14 90 0 1 -14 -14 V161 H70" fill="#e6f598" stroke="#e6f598" stroke-width="0"/>
		<rect x="28" y="136" width="70" height="50" fill="none" rx="14" stroke="#66c2a5" stroke-width="2"/>
		<line x1="28" y1="161" x2="98" y2="161" stroke="#66c2a5" stroke-width="1"/>
		<text x="36" y="153.75" fill="#000000" font-family="Verdana" font-size="12">Effectuer</text>
	</g>
	<text x="68" y="128" fill="#d53e4f" font-family="Verdana" font-size="12">1,N</text>
	<text x="122" y="98.41" fill="#d53e4f" font-family="Verdana" font-size="12">0,N</text>
</g>

<!-- Association REALISER -->
<g>
	<line x1="353" y1="60" x2="208" y2="161" stroke="#66c2a5" stroke-width="2"/>
	<line x1="208" y1="60" x2="208" y2="161" stroke="#66c2a5" stroke-width="2"/>
	<g>
		<path d="M226 136 a14 14 90 0 1 14 14 V161 h-64 V150 a14 14 90 0 1 14 -14" fill="#abdda4" stroke="#abdda4" stroke-width="0"/>
		<path d="M240 161 v11 a14 14 90 0 1 -14 14 H190 a14 14 90 0 1 -14 -14 V161 H64" fill="#e6f598" stroke="#e6f598" stroke-width="0"/>
		<rect x="176" y="136" width="64" height="50" fill="none" rx="14" stroke="#66c2a5" stroke-width="2"/>
		<line x1="176" y1="161" x2="240" y2="161" stroke="#66c2a5" stroke-width="1"/>
		<text x="184" y="153.75" fill="#000000" font-family="Verdana" font-size="12">Réaliser</text>
	</g>
	<text x="272" y="94.92" fill="#d53e4f" font-family="Verdana" font-size="12">1,N</text>
	<text x="213" y="128" fill="#d53e4f" font-family="Verdana" font-size="12">0,N</text>
</g>

<!-- Entity COMPTE -->
<g>
	<g>
		<rect x="9" y="9" width="108" height="25" fill="#fdae61" stroke="none" stroke-width="0" opacity="1"/>
		<rect x="9" y="34" width="108" height="77" fill="#fee08b" stroke="none" stroke-width="0" opacity="1"/>
		<rect x="9" y="9" width="108" height="102" fill="none" stroke="#f46d43" stroke-width="2" opacity="1"/>
		<line x1="9" y1="34" x2="117" y2="34" stroke="#f46d43" stroke-width="1"/>
	</g>
	<text x="39" y="26.75" fill="#000000" font-family="Verdana" font-size="12">Compte</text>
	<text x="14" y="51.8" fill="#000000" font-family="Verdana" font-size="12">ID_Compte</text>
	<line x1="14" y1="54" x2="84" y2="54" stroke="#000000" stroke-width="1"/>
	<text x="14" y="68.8" fill="#000000" font-family="Verdana" font-size="12">Nom_Compte</text>
	<text x="14" y="85.8" fill="#000000" font-family="Verdana" font-size="12">Solde</text>
	<text x="14" y="102.8" fill="#000000" font-family="Verdana" font-size="12">Date_Ouverture</text>
</g>

<!-- Entity TRANSACTION -->
<g>
	<g>
		<rect x="149" y="9" width="118" height="25" fill="#fdae61" stroke="none" stroke-width="0" opacity="1"/>
		<rect x="149" y="34" width="118" height="77" fill="#fee08b" stroke="none" stroke-width="0" opacity="1"/>
		<rect x="149" y="9" width="118" height="102" fill="none" stroke="#f46d43" stroke-width="2" opacity="1"/>
		<line x1="149" y1="34" x2="267" y2="34" stroke="#f46d43" stroke-width="1"/>
	</g>
	<text x="173" y="26.75" fill="#000000" font-family="Verdana" font-size="12">Transaction</text>
	<text x="154" y="51.8" fill="#000000" font-family="Verdana" font-size="12">ID_Transaction</text>
	<line x1="154" y1="54" x2="247" y2="54" stroke="#000000" stroke-width="1"/>
	<text x="154" y="68.8" fill="#000000" font-family="Verdana" font-size="12">Date_Transaction</text>
	<text x="154" y="85.8" fill="#000000" font-family="Verdana" font-size="12">Montant</text>
	<text x="154" y="102.8" fill="#000000" font-family="Verdana" font-size="12">Type_Transaction</text>
</g>

<!-- Entity UTILISATEUR -->
<g>
	<g>
		<rect x="299" y="18" width="108" height="25" fill="#fdae61" stroke="none" stroke-width="0" opacity="1"/>
		<rect x="299" y="43" width="108" height="59" fill="#fee08b" stroke="none" stroke-width="0" opacity="1"/>
		<rect x="299" y="18" width="108" height="84" fill="none" stroke="#f46d43" stroke-width="2" opacity="1"/>
		<line x1="299" y1="43" x2="407" y2="43" stroke="#f46d43" stroke-width="1"/>
	</g>
	<text x="322" y="35.75" fill="#000000" font-family="Verdana" font-size="12">Utilisateur</text>
	<text x="304" y="60.8" fill="#000000" font-family="Verdana" font-size="12">ID_Utilisateur</text>
	<line x1="304" y1="63" x2="388" y2="63" stroke="#000000" stroke-width="1"/>
	<text x="304" y="77.8" fill="#000000" font-family="Verdana" font-size="12">Nom_Utilisateur</text>
	<text x="304" y="94.8" fill="#000000" font-family="Verdana" font-size="12">Role_Utilisateur</text>
</g>
</svg>