<?xml version="1.0" encoding="utf-8"?>
<!-- Generated by Mocodo 4.2.4 -->
<svg width="1109" height="279" viewBox="0 0 1109 279" xmlns="http://www.w3.org/2000/svg">
<rect x="0" y="0" width="1109" height="279" fill="#ffffbf" stroke="none" stroke-width="0"/>

<!-- Association COMPREND -->
<g>
	<line x1="197" y1="68" x2="64" y2="68" stroke="#66c2a5" stroke-width="2"/>
	<line x1="64" y1="211" x2="64" y2="68" stroke="#66c2a5" stroke-width="2"/>
	<g>
		<path d="M89 43 a14 14 90 0 1 14 14 V68 h-78 V57 a14 14 90 0 1 14 -14" fill="#abdda4" stroke="#abdda4" stroke-width="0"/>
		<path d="M103 68 v11 a14 14 90 0 1 -14 14 H39 a14 14 90 0 1 -14 -14 V68 H78" fill="#e6f598" stroke="#e6f598" stroke-width="0"/>
		<rect x="25" y="43" width="78" height="50" fill="none" rx="14" stroke="#66c2a5" stroke-width="2"/>
		<line x1="25" y1="68" x2="103" y2="68" stroke="#66c2a5" stroke-width="1"/>
		<text x="33" y="60.75" fill="#000000" font-family="Verdana" font-size="12">Comprend</text>
	</g>
	<text x="108" y="85" fill="#d53e4f" font-family="Verdana" font-size="12">1,N</text>
	<text x="69" y="161" fill="#d53e4f" font-family="Verdana" font-size="12">0,N</text>
</g>

<!-- Association OFFRE -->
<g>
	<line x1="453" y1="68" x2="322" y2="68" stroke="#66c2a5" stroke-width="2"/>
	<line x1="322" y1="211" x2="322" y2="68" stroke="#66c2a5" stroke-width="2"/>
	<g>
		<path d="M331 43 a14 14 90 0 1 14 14 V68 h-46 V57 a14 14 90 0 1 14 -14" fill="#abdda4" stroke="#abdda4" stroke-width="0"/>
		<path d="M345 68 v11 a14 14 90 0 1 -14 14 H313 a14 14 90 0 1 -14 -14 V68 H46" fill="#e6f598" stroke="#e6f598" stroke-width="0"/>
		<rect x="299" y="43" width="46" height="50" fill="none" rx="14" stroke="#66c2a5" stroke-width="2"/>
		<line x1="299" y1="68" x2="345" y2="68" stroke="#66c2a5" stroke-width="1"/>
		<text x="307" y="60.75" fill="#000000" font-family="Verdana" font-size="12">Offre</text>
	</g>
	<text x="350" y="85" fill="#d53e4f" font-family="Verdana" font-size="12">1,N</text>
	<text x="327" y="152" fill="#d53e4f" font-family="Verdana" font-size="12">0,N</text>
</g>

<!-- Association APPARTIENT -->
<g>
	<line x1="921" y1="68" x2="796" y2="68" stroke="#66c2a5" stroke-width="2"/>
	<line x1="796" y1="211" x2="796" y2="68" stroke="#66c2a5" stroke-width="2"/>
	<g>
		<path d="M821 43 a14 14 90 0 1 14 14 V68 h-78 V57 a14 14 90 0 1 14 -14" fill="#abdda4" stroke="#abdda4" stroke-width="0"/>
		<path d="M835 68 v11 a14 14 90 0 1 -14 14 H771 a14 14 90 0 1 -14 -14 V68 H78" fill="#e6f598" stroke="#e6f598" stroke-width="0"/>
		<rect x="757" y="43" width="78" height="50" fill="none" rx="14" stroke="#66c2a5" stroke-width="2"/>
		<line x1="757" y1="68" x2="835" y2="68" stroke="#66c2a5" stroke-width="1"/>
		<text x="764" y="60.75" fill="#000000" font-family="Verdana" font-size="12">Appartient</text>
	</g>
	<text x="840" y="85" fill="#d53e4f" font-family="Verdana" font-size="12">1,N</text>
	<text x="801" y="152" fill="#d53e4f" font-family="Verdana" font-size="12">1,1</text>
</g>

<!-- Association FACTURATION -->
<g>
	<line x1="322" y1="211" x2="197" y2="211" stroke="#66c2a5" stroke-width="2"/>
	<line x1="64" y1="211" x2="197" y2="211" stroke="#66c2a5" stroke-width="2"/>
	<g>
		<path d="M225 186 a14 14 90 0 1 14 14 V211 h-84 V200 a14 14 90 0 1 14 -14" fill="#abdda4" stroke="#abdda4" stroke-width="0"/>
		<path d="M239 211 v11 a14 14 90 0 1 -14 14 H169 a14 14 90 0 1 -14 -14 V211 H84" fill="#e6f598" stroke="#e6f598" stroke-width="0"/>
		<rect x="155" y="186" width="84" height="50" fill="none" rx="14" stroke="#66c2a5" stroke-width="2"/>
		<line x1="155" y1="211" x2="239" y2="211" stroke="#66c2a5" stroke-width="1"/>
		<text x="163" y="203.75" fill="#000000" font-family="Verdana" font-size="12">Facturation</text>
	</g>
	<text x="244" y="228" fill="#d53e4f" font-family="Verdana" font-size="12">1,N</text>
	<text x="124" y="228" fill="#d53e4f" font-family="Verdana" font-size="12">0,N</text>
</g>

<!-- Association EMET -->
<g>
	<line x1="566" y1="211" x2="453" y2="211" stroke="#66c2a5" stroke-width="2"/>
	<line x1="322" y1="211" x2="453" y2="211" stroke="#66c2a5" stroke-width="2"/>
	<g>
		<path d="M462 186 a14 14 90 0 1 14 14 V211 h-46 V200 a14 14 90 0 1 14 -14" fill="#abdda4" stroke="#abdda4" stroke-width="0"/>
		<path d="M476 211 v11 a14 14 90 0 1 -14 14 H444 a14 14 90 0 1 -14 -14 V211 H46" fill="#e6f598" stroke="#e6f598" stroke-width="0"/>
		<rect x="430" y="186" width="46" height="50" fill="none" rx="14" stroke="#66c2a5" stroke-width="2"/>
		<line x1="430" y1="211" x2="476" y2="211" stroke="#66c2a5" stroke-width="1"/>
		<text x="437" y="203.75" fill="#000000" font-family="Verdana" font-size="12">Emet</text>
	</g>
	<text x="481" y="228" fill="#d53e4f" font-family="Verdana" font-size="12">1,N</text>
	<text x="378" y="228" fill="#d53e4f" font-family="Verdana" font-size="12">0,N</text>
</g>

<!-- Association NOTIFIE -->
<g>
	<line x1="796" y1="211" x2="683" y2="211" stroke="#66c2a5" stroke-width="2"/>
	<line x1="683" y1="68" x2="683" y2="211" stroke="#66c2a5" stroke-width="2"/>
	<g>
		<path d="M696 186 a14 14 90 0 1 14 14 V211 h-54 V200 a14 14 90 0 1 14 -14" fill="#abdda4" stroke="#abdda4" stroke-width="0"/>
		<path d="M710 211 v11 a14 14 90 0 1 -14 14 H670 a14 14 90 0 1 -14 -14 V211 H54" fill="#e6f598" stroke="#e6f598" stroke-width="0"/>
		<rect x="656" y="186" width="54" height="50" fill="none" rx="14" stroke="#66c2a5" stroke-width="2"/>
		<line x1="656" y1="211" x2="710" y2="211" stroke="#66c2a5" stroke-width="1"/>
		<text x="663" y="203.75" fill="#000000" font-family="Verdana" font-size="12">Notifie</text>
	</g>
	<text x="715" y="228" fill="#d53e4f" font-family="Verdana" font-size="12">1,N</text>
	<text x="688" y="127" fill="#d53e4f" font-family="Verdana" font-size="12">0,N</text>
</g>

<!-- Association REALISE -->
<g>
	<line x1="796" y1="211" x2="921" y2="211" stroke="#66c2a5" stroke-width="2"/>
	<line x1="1041" y1="211" x2="921" y2="211" stroke="#66c2a5" stroke-width="2"/>
	<g>
		<path d="M936 186 a14 14 90 0 1 14 14 V211 h-58 V200 a14 14 90 0 1 14 -14" fill="#abdda4" stroke="#abdda4" stroke-width="0"/>
		<path d="M950 211 v11 a14 14 90 0 1 -14 14 H906 a14 14 90 0 1 -14 -14 V211 H58" fill="#e6f598" stroke="#e6f598" stroke-width="0"/>
		<rect x="892" y="186" width="58" height="50" fill="none" rx="14" stroke="#66c2a5" stroke-width="2"/>
		<line x1="892" y1="211" x2="950" y2="211" stroke="#66c2a5" stroke-width="1"/>
		<text x="899" y="203.75" fill="#000000" font-family="Verdana" font-size="12">Réalise</text>
	</g>
	<text x="855" y="228" fill="#d53e4f" font-family="Verdana" font-size="12">1,N</text>
	<text x="955" y="228" fill="#d53e4f" font-family="Verdana" font-size="12">0,N</text>
</g>

<!-- Entity ARTICLE -->
<g>
	<g>
		<rect x="135" y="17" width="124" height="25" fill="#fdae61" stroke="none" stroke-width="0" opacity="1"/>
		<rect x="135" y="42" width="124" height="77" fill="#fee08b" stroke="none" stroke-width="0" opacity="1"/>
		<rect x="135" y="17" width="124" height="102" fill="none" stroke="#f46d43" stroke-width="2" opacity="1"/>
		<line x1="135" y1="42" x2="259" y2="42" stroke="#f46d43" stroke-width="1"/>
	</g>
	<text x="178" y="34.75" fill="#000000" font-family="Verdana" font-size="12">Article</text>
	<text x="140" y="59.8" fill="#000000" font-family="Verdana" font-size="12">ID_Article</text>
	<line x1="140" y1="62" x2="201" y2="62" stroke="#000000" stroke-width="1"/>
	<text x="140" y="76.8" fill="#000000" font-family="Verdana" font-size="12">Nom_Article</text>
	<text x="140" y="93.8" fill="#000000" font-family="Verdana" font-size="12">Description_Article</text>
	<text x="140" y="110.8" fill="#000000" font-family="Verdana" font-size="12">Prix_Unitaire</text>
</g>

<!-- Entity FOURNISSEUR -->
<g>
	<g>
		<rect x="377" y="9" width="152" height="25" fill="#fdae61" stroke="none" stroke-width="0" opacity="1"/>
		<rect x="377" y="34" width="152" height="93" fill="#fee08b" stroke="none" stroke-width="0" opacity="1"/>
		<rect x="377" y="9" width="152" height="118" fill="none" stroke="#f46d43" stroke-width="2" opacity="1"/>
		<line x1="377" y1="34" x2="529" y2="34" stroke="#f46d43" stroke-width="1"/>
	</g>
	<text x="418" y="26.75" fill="#000000" font-family="Verdana" font-size="12">Fournisseur</text>
	<text x="382" y="51.8" fill="#000000" font-family="Verdana" font-size="12">ID_Fournisseur</text>
	<line x1="382" y1="54" x2="475" y2="54" stroke="#000000" stroke-width="1"/>
	<text x="382" y="68.8" fill="#000000" font-family="Verdana" font-size="12">Nom_Fournisseur</text>
	<text x="382" y="85.8" fill="#000000" font-family="Verdana" font-size="12">Adresse_Fournisseur</text>
	<text x="382" y="102.8" fill="#000000" font-family="Verdana" font-size="12">Email_Fournisseur</text>
	<text x="382" y="119.8" fill="#000000" font-family="Verdana" font-size="12">Telephone_Fournisseur</text>
</g>

<!-- Entity ALERTE -->
<g>
	<g>
		<rect x="641" y="26" width="84" height="25" fill="#fdae61" stroke="none" stroke-width="0" opacity="1"/>
		<rect x="641" y="51" width="84" height="59" fill="#fee08b" stroke="none" stroke-width="0" opacity="1"/>
		<rect x="641" y="26" width="84" height="84" fill="none" stroke="#f46d43" stroke-width="2" opacity="1"/>
		<line x1="641" y1="51" x2="725" y2="51" stroke="#f46d43" stroke-width="1"/>
	</g>
	<text x="665" y="43.75" fill="#000000" font-family="Verdana" font-size="12">Alerte</text>
	<text x="646" y="68.8" fill="#000000" font-family="Verdana" font-size="12">ID_Alerte</text>
	<line x1="646" y1="71" x2="705" y2="71" stroke="#000000" stroke-width="1"/>
	<text x="646" y="85.8" fill="#000000" font-family="Verdana" font-size="12">Message</text>
	<text x="646" y="102.8" fill="#000000" font-family="Verdana" font-size="12">Date_Alerte</text>
</g>

<!-- Entity UTILISATEUR -->
<g>
	<g>
		<rect x="867" y="26" width="108" height="25" fill="#fdae61" stroke="none" stroke-width="0" opacity="1"/>
		<rect x="867" y="51" width="108" height="59" fill="#fee08b" stroke="none" stroke-width="0" opacity="1"/>
		<rect x="867" y="26" width="108" height="84" fill="none" stroke="#f46d43" stroke-width="2" opacity="1"/>
		<line x1="867" y1="51" x2="975" y2="51" stroke="#f46d43" stroke-width="1"/>
	</g>
	<text x="890" y="43.75" fill="#000000" font-family="Verdana" font-size="12">Utilisateur</text>
	<text x="872" y="68.8" fill="#000000" font-family="Verdana" font-size="12">ID_Utilisateur</text>
	<line x1="872" y1="71" x2="956" y2="71" stroke="#000000" stroke-width="1"/>
	<text x="872" y="85.8" fill="#000000" font-family="Verdana" font-size="12">Nom_Utilisateur</text>
	<text x="872" y="102.8" fill="#000000" font-family="Verdana" font-size="12">Role_Utilisateur</text>
</g>

<!-- Entity LIGNEFACTURE -->
<g>
	<g>
		<rect x="9" y="169" width="110" height="25" fill="#fdae61" stroke="none" stroke-width="0" opacity="1"/>
		<rect x="9" y="194" width="110" height="59" fill="#fee08b" stroke="none" stroke-width="0" opacity="1"/>
		<rect x="9" y="169" width="110" height="84" fill="none" stroke="#f46d43" stroke-width="2" opacity="1"/>
		<line x1="9" y1="194" x2="119" y2="194" stroke="#f46d43" stroke-width="1"/>
	</g>
	<text x="25" y="186.75" fill="#000000" font-family="Verdana" font-size="12">LigneFacture</text>
	<text x="14" y="211.8" fill="#000000" font-family="Verdana" font-size="12">ID_LigneFacture</text>
	<line x1="14" y1="214" x2="114" y2="214" stroke="#000000" stroke-width="1"/>
	<text x="14" y="228.8" fill="#000000" font-family="Verdana" font-size="12">Quantite</text>
	<text x="14" y="245.8" fill="#000000" font-family="Verdana" font-size="12">Prix_Total</text>
</g>

<!-- Entity FACTURE -->
<g>
	<g>
		<rect x="271" y="160" width="102" height="25" fill="#fdae61" stroke="none" stroke-width="0" opacity="1"/>
		<rect x="271" y="185" width="102" height="77" fill="#fee08b" stroke="none" stroke-width="0" opacity="1"/>
		<rect x="271" y="160" width="102" height="102" fill="none" stroke="#f46d43" stroke-width="2" opacity="1"/>
		<line x1="271" y1="185" x2="373" y2="185" stroke="#f46d43" stroke-width="1"/>
	</g>
	<text x="299" y="177.75" fill="#000000" font-family="Verdana" font-size="12">Facture</text>
	<text x="276" y="202.8" fill="#000000" font-family="Verdana" font-size="12">ID_Facture</text>
	<line x1="276" y1="205" x2="344" y2="205" stroke="#000000" stroke-width="1"/>
	<text x="276" y="219.8" fill="#000000" font-family="Verdana" font-size="12">Date_Facture</text>
	<text x="276" y="236.8" fill="#000000" font-family="Verdana" font-size="12">Montant_Total</text>
	<text x="276" y="253.8" fill="#000000" font-family="Verdana" font-size="12">Statut_Facture</text>
</g>

<!-- Entity CLIENT -->
<g>
	<g>
		<rect x="508" y="152" width="116" height="25" fill="#fdae61" stroke="none" stroke-width="0" opacity="1"/>
		<rect x="508" y="177" width="116" height="93" fill="#fee08b" stroke="none" stroke-width="0" opacity="1"/>
		<rect x="508" y="152" width="116" height="118" fill="none" stroke="#f46d43" stroke-width="2" opacity="1"/>
		<line x1="508" y1="177" x2="624" y2="177" stroke="#f46d43" stroke-width="1"/>
	</g>
	<text x="549" y="169.75" fill="#000000" font-family="Verdana" font-size="12">Client</text>
	<text x="513" y="194.8" fill="#000000" font-family="Verdana" font-size="12">ID_Client</text>
	<line x1="513" y1="197" x2="570" y2="197" stroke="#000000" stroke-width="1"/>
	<text x="513" y="211.8" fill="#000000" font-family="Verdana" font-size="12">Nom_Client</text>
	<text x="513" y="228.8" fill="#000000" font-family="Verdana" font-size="12">Adresse_Client</text>
	<text x="513" y="245.8" fill="#000000" font-family="Verdana" font-size="12">Email_Client</text>
	<text x="513" y="262.8" fill="#000000" font-family="Verdana" font-size="12">Telephone_Client</text>
</g>

<!-- Entity COMPTE -->
<g>
	<g>
		<rect x="742" y="160" width="108" height="25" fill="#fdae61" stroke="none" stroke-width="0" opacity="1"/>
		<rect x="742" y="185" width="108" height="77" fill="#fee08b" stroke="none" stroke-width="0" opacity="1"/>
		<rect x="742" y="160" width="108" height="102" fill="none" stroke="#f46d43" stroke-width="2" opacity="1"/>
		<line x1="742" y1="185" x2="850" y2="185" stroke="#f46d43" stroke-width="1"/>
	</g>
	<text x="772" y="177.75" fill="#000000" font-family="Verdana" font-size="12">Compte</text>
	<text x="747" y="202.8" fill="#000000" font-family="Verdana" font-size="12">ID_Compte</text>
	<line x1="747" y1="205" x2="817" y2="205" stroke="#000000" stroke-width="1"/>
	<text x="747" y="219.8" fill="#000000" font-family="Verdana" font-size="12">Nom_Compte</text>
	<text x="747" y="236.8" fill="#000000" font-family="Verdana" font-size="12">Solde</text>
	<text x="747" y="253.8" fill="#000000" font-family="Verdana" font-size="12">Date_Ouverture</text>
</g>

<!-- Entity TRANSACTION -->
<g>
	<g>
		<rect x="982" y="160" width="118" height="25" fill="#fdae61" stroke="none" stroke-width="0" opacity="1"/>
		<rect x="982" y="185" width="118" height="77" fill="#fee08b" stroke="none" stroke-width="0" opacity="1"/>
		<rect x="982" y="160" width="118" height="102" fill="none" stroke="#f46d43" stroke-width="2" opacity="1"/>
		<line x1="982" y1="185" x2="1100" y2="185" stroke="#f46d43" stroke-width="1"/>
	</g>
	<text x="1006" y="177.75" fill="#000000" font-family="Verdana" font-size="12">Transaction</text>
	<text x="987" y="202.8" fill="#000000" font-family="Verdana" font-size="12">ID_Transaction</text>
	<line x1="987" y1="205" x2="1080" y2="205" stroke="#000000" stroke-width="1"/>
	<text x="987" y="219.8" fill="#000000" font-family="Verdana" font-size="12">Date_Transaction</text>
	<text x="987" y="236.8" fill="#000000" font-family="Verdana" font-size="12">Montant</text>
	<text x="987" y="253.8" fill="#000000" font-family="Verdana" font-size="12">Type_Transaction</text>
</g>
</svg>